<svg xmlns="http://www.w3.org/2000/svg" viewBox="0 0 283.46479 86.69749"><defs><style>.a{fill:#fff;}.b{fill:#ec6b1f;}</style></defs><rect class="a" x="0.00781" y="12.6777" width="13.93699" height="37.6904"/><path class="a" d="M18.2109,19.4355a13.57117,13.57117,0,0,1,.2168-2.3125,4.13214,4.13214,0,0,1,1.3487-2.3125,5.45757,5.45757,0,0,1,1.8491-1.207,11.60023,11.60023,0,0,1,2.2056-.6416,14.4878,14.4878,0,0,1,2.2382-.2481q1.10385-.0351,1.9566-.0361H41.1103a39.69984,39.69984,0,0,1,6.5088.5352A13.45039,13.45039,0,0,1,53.77,16.0234a12.01117,12.01117,0,0,1,2.4888,2.6983,12.9436,12.9436,0,0,1,1.4243,2.914,13.76237,13.76237,0,0,1,.6377,2.9151q.14205,1.43115.1436,2.6328V50.3681H44.5254V31.2392a20.524,20.524,0,0,0-.2871-3.5898,6.442,6.442,0,0,0-1.2774-2.8828,5.2625,5.2625,0,0,0-2.2739-1.7412,9.69622,9.69622,0,0,0-3.4878-.5323H34.7119a5.00986,5.00986,0,0,0-.9595.1036,2.12449,2.12449,0,0,0-.9614.4668,1.52451,1.52451,0,0,0-.6059,1.0263c-.024.3574-.0323.7285-.0323,1.1065V50.3681H18.2109Z"/><path class="a" d="M94.2305,45.459a9.4346,9.4346,0,0,0,2.5615,2.8476,10.05732,10.05732,0,0,0,3.1279,1.4561,16.19489,16.19489,0,0,0,3.6289.5361c1.2793.0439,2.6299.0693,4.0537.0693h23.8262V40.2676H113.1523a34.63852,34.63852,0,0,1-3.5947-.1778,3.412,3.412,0,0,1-2.666-1.5947,4.30565,4.30565,0,0,1-.5352-1.4268,5.68889,5.68889,0,0,1-.1103-1.6338h20.5576a11.77269,11.77269,0,0,0,1.8867-.1445,3.79332,3.79332,0,0,0,1.8096-.9209,5.00912,5.00912,0,0,0,1.957-3.1689,22.03869,22.03869,0,0,0,.3233-3.7295c0-1.0449-.0391-2.1446-.1084-3.3106a19.13532,19.13532,0,0,0-.5381-3.4443,15.02464,15.02464,0,0,0-1.2422-3.2734,8.06988,8.06988,0,0,0-2.1699-2.6319,10.99286,10.99286,0,0,0-6.0469-2.2021c-2.5088-.2393-5.6895-.3584-9.5225-.3584q-2.7084,0-5.3027.0732a41.21847,41.21847,0,0,0-4.9404.4229,20.79208,20.79208,0,0,0-4.2998,1.1064,8.58188,8.58188,0,0,0-3.2354,2.0986,8.30917,8.30917,0,0,0-1.9267,2.9854,16.37709,16.37709,0,0,0-.8838,3.7353,34.732,34.732,0,0,0-.2539,4.3731v4.9072a77.7436,77.7436,0,0,0,.3564,8.2842A13.28113,13.28113,0,0,0,94.2305,45.459Zm12.1631-21.3692a2.5574,2.5574,0,0,1,1.3515-1.6699,5.52658,5.52658,0,0,1,2.2031-.5313c.9502-.0751,1.8252-.1074,2.6329-.1074.3808,0,.9472.0244,1.7041.0703.7578.0489,1.4248.1211,1.9951.2149a3.372,3.372,0,0,1,2.0615,1.0664,2.56983,2.56983,0,0,1,.4922,1.4951,2.65346,2.65346,0,0,1-.3906,1.2773c-.2579.4776-.8838.71-1.8799.71H106.2461A7.26307,7.26307,0,0,1,106.3936,24.0898Z"/><path class="a" d="M95.4424,50.2353a11.77275,11.77275,0,0,1-3.2178-3.5371l-.0127-.0215-.0127-.0215a15.62981,15.62981,0,0,1-1.8769-6.1582c-.0039-.0712-.0118-.1494-.0176-.2294H88.2598a21.07433,21.07433,0,0,1-3.0235-.2452,5.88294,5.88294,0,0,1-3.0957-1.5273,6.38435,6.38435,0,0,1-1.9883-3.4512,19.723,19.723,0,0,1-.4257-4.0888V22.3496h10.499a18.75338,18.75338,0,0,1,1.0176-4.2442,10.68657,10.68657,0,0,1,2.4404-3.8027,10.50431,10.50431,0,0,1,2.0195-1.625H79.7266V0l-13.94,3.7011v8.9766H60.4531v9.6719h5.3335V38.5635a11.72284,11.72284,0,0,0,1.207,5.0878,10.536,10.536,0,0,0,3.5601,4.1553,10.751,10.751,0,0,0,3.0537,1.4951,23.529,23.529,0,0,0,3.2022.7442,20.44425,20.44425,0,0,0,2.9502.2842c.9248.0263,1.7451.038,2.456.038H95.6465C95.582,50.3222,95.5049,50.2861,95.4424,50.2353Z"/><path class="b" d="M231.3057,49.0879a12.4214,12.4214,0,0,0,3.51849-2.1319,11.25155,11.25155,0,0,0,2.76951-3.6631,20.79087,20.79087,0,0,0,1.49519-4.2304,23.55534,23.55534,0,0,0,.6064-4.126c.06841-1.3232.10841-2.4648.10841-3.4141,0-.9443-.04-2.0869-.10841-3.4121a23.60461,23.60461,0,0,0-.6064-4.1269,20.79207,20.79207,0,0,0-1.49519-4.2285,11.25155,11.25155,0,0,0-2.76951-3.6631,12.39855,12.39855,0,0,0-3.51849-2.1319,19.37316,19.37316,0,0,0-4.16411-1.1396,40.58938,40.58938,0,0,0-4.5498-.4649q-2.3481-.10245-4.5518-.1054c-1.5185,0-3.0439.0371-4.5859.1054a40.49509,40.49509,0,0,0-4.5156.4649,19.28547,19.28547,0,0,0-4.1612,1.1396,12.35972,12.35972,0,0,0-3.5214,2.1319,11.24078,11.24078,0,0,0-2.7706,3.6631,21.157,21.157,0,0,0-1.496,4.2285,24.53946,24.53946,0,0,0-.60449,4.1269c-.0694,1.3252-.1084,2.4678-.1084,3.4121,0,.9493.039,2.0909.1084,3.4141a24.4867,24.4867,0,0,0,.60449,4.126,21.15547,21.15547,0,0,0,1.496,4.2304,11.24078,11.24078,0,0,0,2.7706,3.6631,12.3824,12.3824,0,0,0,3.5214,2.1319,19.28759,19.28759,0,0,0,4.1612,1.1367,40.23514,40.23514,0,0,0,4.5156.4658c1.542.0703,3.0674.1074,4.5859.1074q2.2032,0,4.5518-.1074a40.33107,40.33107,0,0,0,4.5498-.4658A19.37518,19.37518,0,0,0,231.3057,49.0879ZM225.291,35.2578a6.93735,6.93735,0,0,1-1.1338,2.8779,7.24429,7.24429,0,0,1-1.8886,1.6377,7.73821,7.73821,0,0,1-4.2286.9229,9.1492,9.1492,0,0,1-2.73429-.3526,9.90334,9.90334,0,0,1-1.85161-.7822,4.72818,4.72818,0,0,1-1.1406-.8564,3.60719,3.60719,0,0,1-.458-.5694,7.32332,7.32332,0,0,1-.8907-2.0254,16.32681,16.32681,0,0,1-.4609-4.5879,15.76617,15.76617,0,0,1,.5-4.7627,10.32607,10.32607,0,0,1,.8516-1.9931,7.81645,7.81645,0,0,1,1.915-1.5655,11.12482,11.12482,0,0,1,8.5371,0,7.821,7.821,0,0,1,1.9199,1.5655,6.95737,6.95737,0,0,1,.959,2.2783,18.79083,18.79083,0,0,1,.3906,4.4775A22.37575,22.37575,0,0,1,225.291,35.2578Z"/><path class="a" d="M158.291,22.4668a24.872,24.872,0,0,1,1.3711-3.6524,13.3359,13.3359,0,0,1,3.1934-4.4873,14.27348,14.27348,0,0,1,2.3271-1.6494H154.6074c-.9482,0-2.001.0264-3.1592.0684a25.1628,25.1628,0,0,0-3.6289.4306,21.5857,21.5857,0,0,0-3.7353,1.0664,12.20438,12.20438,0,0,0-3.4121,1.9912,10.21629,10.21629,0,0,0-2.4551,2.8438,14.08783,14.08783,0,0,0-1.3486,3.2344,16.03686,16.03686,0,0,0-.5674,3.2744c-.0791,1.0654-.1084,2.0508-.1084,2.9502v21.831H150.126V32.374a22.24458,22.24458,0,0,1,.3232-3.5879,8.17584,8.17584,0,0,1,1.5274-3.5898,5.74806,5.74806,0,0,1,3.167-2.2403A25.56818,25.56818,0,0,1,158.291,22.4668Z"/><path class="b" d="M196.3594,44.3047a22.75063,22.75063,0,0,1-1.4854-4.0371h-1.9365a20.981,20.981,0,0,1-3.0205-.2452,5.8745,5.8745,0,0,1-3.0977-1.5273,6.34643,6.34643,0,0,1-1.9873-3.4512,19.85838,19.85838,0,0,1-.4306-4.0888V22.3496h10.5849a22.81855,22.81855,0,0,1,1.3711-3.6055,13.67165,13.67165,0,0,1,3.35739-4.4375,15.0813,15.0813,0,0,1,2.3282-1.6289H184.4014V0L170.4648,3.7011v8.9766h-2.6601a14.48884,14.48884,0,0,0-2.3272,1.6494,13.94218,13.94218,0,0,0-3.3652,4.4873,24.64673,24.64673,0,0,0-1.3711,3.6524h3.1143l-.002.0078h6.6113V38.5635a11.73706,11.73706,0,0,0,1.208,5.0878,10.57655,10.57655,0,0,0,3.5557,4.1553,10.76068,10.76068,0,0,0,3.0635,1.4951,23.19968,23.19968,0,0,0,3.1973.7442,20.3658,20.3658,0,0,0,2.9521.2842c.9189.0263,1.7422.038,2.4512.038H202.041a15.21708,15.21708,0,0,1-2.3418-1.6416A13.632,13.632,0,0,1,196.3594,44.3047Z"/><path class="b" d="M243.21679,19.4355a13.58821,13.58821,0,0,1,.21191-2.3125,4.11681,4.11681,0,0,1,1.35059-2.3125,5.399,5.399,0,0,1,1.8496-1.207,11.50429,11.50429,0,0,1,2.2031-.6416,14.53312,14.53312,0,0,1,2.2403-.2481q1.10445-.0351,1.9531-.0361h13.0879a39.60935,39.60935,0,0,1,6.5078.5352,13.47289,13.47289,0,0,1,6.1514,2.8105,11.9618,11.9618,0,0,1,2.4863,2.6983,12.69144,12.69144,0,0,1,1.4238,2.914,13.70816,13.70816,0,0,1,.6397,2.9151q.14355,1.43115.1425,2.6328V50.3681h-13.9404V31.2392a20.44378,20.44378,0,0,0-.2842-3.5898,6.49751,6.49751,0,0,0-1.2783-2.8828,5.24952,5.24952,0,0,0-2.2734-1.7412,9.67155,9.67155,0,0,0-3.4873-.5323h-2.4883a5.0656,5.0656,0,0,0-.959.1036,2.13812,2.13812,0,0,0-.9619.4668,1.50816,1.50816,0,0,0-.6006,1.0263c-.0283.3574-.041.7285-.041,1.1065V50.3681h-13.9336Z"/><polygon class="b" points="0 7.967 0 3.701 13.939 0 13.939 7.967 0 7.967"/><path class="a" d="M88.6279,73.9492l-.2363-.7578a1.35991,1.35991,0,0,0-.4033-.5811,3.12939,3.12939,0,0,0-.7207-.4795,5.1238,5.1238,0,0,0-.9483-.333,4.048,4.048,0,0,0-1.0361-.1318,3.92479,3.92479,0,0,0-1.1387.167,4.16049,4.16049,0,0,0-1.041.4648,3.83963,3.83963,0,0,0-.7998.6778,1.83085,1.83085,0,0,0-.4414.7861,2.41776,2.41776,0,0,0-.0762.5059c-.0185.2363-.0322.5029-.042.8056s-.0136.625-.0136.957v3.3584c0,.6553.0039,1.1934.0136,1.6026a3.91611,3.91611,0,0,0,.1182.9658,2.28265,2.28265,0,0,0,.4639.7959,3.51039,3.51039,0,0,0,.8056.6875,4.10219,4.10219,0,0,0,1.0371.4795,3.64736,3.64736,0,0,0,1.1143.1875,4.29366,4.29366,0,0,0,1.5264-.2891,3.30829,3.30829,0,0,0,1.2207-.7177,1.37467,1.37467,0,0,0,.417-.876,2.52761,2.52761,0,0,1,.0341-.3594,2.20845,2.20845,0,0,0,.042-.3652V79.749H85.1025V77.1338h6.0371l-.0283,4.8232v.3174a2.416,2.416,0,0,1-.0478.459,3.56126,3.56126,0,0,1-.4932,1.3935,4.4339,4.4339,0,0,1-1.1269,1.2569,5.71048,5.71048,0,0,1-1.753.9082,7.40421,7.40421,0,0,1-2.4072.3554,6.74568,6.74568,0,0,1-3.6152-.9511,5.265,5.265,0,0,1-2.2129-2.6582,4.34117,4.34117,0,0,1-.1602-.4092c-.0303-.1416-.0674-.2979-.1035-.4776a3.56245,3.56245,0,0,1-.0488-.583V74.1777c0-.0478.0176-.2285.0488-.541a3.09559,3.09559,0,0,1,.2637-.9365,5.29806,5.29806,0,0,1,2.2129-2.6534,6.65254,6.65254,0,0,1,3.6435-.9199,7.50044,7.50044,0,0,1,2.1992.2949,6.0687,6.0687,0,0,1,1.6436.7549,4.79344,4.79344,0,0,1,1.1318,1.0293,3.64743,3.64743,0,0,1,.6211,1.1328l.2324.6739Z"/><path class="a" d="M117.9082,86.3818l-3.6768-7.0976h-3.6572v7.0976h-2.5879V69.4101h7.5342l.7578.0508a3.85585,3.85585,0,0,1,2.8574,1.3526,5.298,5.298,0,0,1,1,3.4687v.1318a5.281,5.281,0,0,1-.792,3.1221,4.14422,4.14422,0,0,1-2.289,1.54l3.7812,7.3057Zm-.3604-12.0439a2.85185,2.85185,0,0,0-.1757-1.1172,2.385,2.385,0,0,0-.4991-.7285A1.93764,1.93764,0,0,0,115.4639,72h-4.8897v4.6904h4.8897a1.9168,1.9168,0,0,0,1.4091-.4902,2.37837,2.37837,0,0,0,.4991-.711,2.77122,2.77122,0,0,0,.1757-1.1025Z"/><path class="a" d="M148.4863,81.6699c0,.0322-.0185.2031-.0566.5146a2.92455,2.92455,0,0,1-.2559.9375,5.27855,5.27855,0,0,1-2.2129,2.6436,6.90447,6.90447,0,0,1-3.6142.9287h-.1045a6.322,6.322,0,0,1-3.6152-.9082,5.34869,5.34869,0,0,1-2.2168-2.6641,3.24162,3.24162,0,0,1-.2608-.9375c-.0322-.3115-.0478-.4824-.0478-.5146V74.1015c0-.0371.0166-.2129.0615-.5351a4.02736,4.02736,0,0,1,.2471-.9151,5.41041,5.41041,0,0,1,2.2304-2.6709,6.84847,6.84847,0,0,1,3.6289-.9296h.0772a6.65074,6.65074,0,0,1,3.6142.915,5.33993,5.33993,0,0,1,2.2129,2.6855,3.79117,3.79117,0,0,1,.2481.9151c.041.3222.0644.498.0644.5351v7.5684Zm-2.5947-4.7441c0-.6915-.0049-1.3643-.0088-2.0196a6.134,6.134,0,0,0-.1162-1.3467,1.90416,1.90416,0,0,0-.4307-.789,3.006,3.006,0,0,0-.791-.6543,4.57574,4.57574,0,0,0-2.1982-.582h-.1045a4.36781,4.36781,0,0,0-1.166.1601,4.41677,4.41677,0,0,0-1.041.4219,2.91055,2.91055,0,0,0-.7774.6543,2.18717,2.18717,0,0,0-.4365.789,6.161,6.161,0,0,0-.1182,1.3467q-.01455.983-.0136,2.0196v2.9423c0,.3516.0039.6817.0136.9844.0098.3037.0235.5742.042.8174a1.89829,1.89829,0,0,0,.0762.5146,2.25282,2.25282,0,0,0,.4365.7911,2.909,2.909,0,0,0,.7774.6474,4.12335,4.12335,0,0,0,1.041.4278,4.37029,4.37029,0,0,0,1.166.1582h.1045a4.3795,4.3795,0,0,0,1.165-.1582,4.05287,4.05287,0,0,0,1.0332-.4278,3.00532,3.00532,0,0,0,.791-.6474,1.95385,1.95385,0,0,0,.4307-.7911,2.84388,2.84388,0,0,0,.0762-.5146c.0185-.2432.0322-.5137.04-.8174.0039-.3027.0088-.6328.0088-.9844V76.9258Z"/><path class="a" d="M176.4209,81.6699c0,.0322-.0186.2031-.0566.5146a2.95049,2.95049,0,0,1-.2559.9375,5.28093,5.28093,0,0,1-2.2139,2.6436,6.90447,6.90447,0,0,1-3.6142.9287h-.1045a6.32663,6.32663,0,0,1-3.6153-.9082,5.368,5.368,0,0,1-2.2187-2.6641,3.33109,3.33109,0,0,1-.2578-.9375c-.0362-.3115-.0479-.4824-.0479-.5146V69.4609h2.5869V80.4502c0,.331.004.625.0137.8818a2.47206,2.47206,0,0,0,.1182.7012,2.32113,2.32113,0,0,0,.4648.8105,3.36049,3.36049,0,0,0,.8057.7012,4.10039,4.10039,0,0,0,1.0332.4785,3.607,3.607,0,0,0,1.1172.1856h.1045a3.58292,3.58292,0,0,0,1.1093-.1856,4.37118,4.37118,0,0,0,1.0528-.4785,3.57035,3.57035,0,0,0,.8281-.7012,1.89721,1.89721,0,0,0,.4502-.8105,2.79684,2.79684,0,0,0,.1045-.584c.0176-.1982.0273-.5254.0273-.9707l-.0273-11.0176h2.5957Z"/><path class="a" d="M203.89839,78.2998a3.914,3.914,0,0,1-2.8593,1.5547l-.7559.0761H195.335v6.4268h-2.5879V69.3349h7.53609l.7559.0752a3.94639,3.94639,0,0,1,2.8593,1.541,5.90213,5.90213,0,0,1,.9981,3.6153v.1328A5.90672,5.90672,0,0,1,203.89839,78.2998Zm-1.5898-3.6914a2.92282,2.92282,0,0,0-.6758-2.1397,1.908,1.908,0,0,0-1.4082-.5185H195.335v5.3916h4.88959a1.90752,1.90752,0,0,0,1.4082-.5176,2.96668,2.96668,0,0,0,.6758-2.168Z"/></svg>