<svg xmlns="http://www.w3.org/2000/svg" viewBox="0 0 356.51056 94.22015"><path d="M37.91879,85.84076c0,2.60815-1.95335,4.65582-5.82605,6.14007a37.31989,37.31989,0,0,1-13.411,2.23932A35.84173,35.84173,0,0,1,5.41051,92.05029C1.81532,90.61224,0,88.54156,0,85.84076V7.71C0,5.28625,1.90744,3.37769,5.688,2.03162A39.54505,39.54505,0,0,1,18.95982,0,39.24707,39.24707,0,0,1,32.37,2.03162C36.05841,3.37744,37.91879,5.28693,37.91879,7.71v78.1308Z" style="fill:#727270;fill-rule:evenodd"/><path d="M172.71271,61.88c-2.62772,6.46924-5.84592,13.19928-17.34067,19.89814-14.16986,8.25836-32.23276,12.442-54.4751,12.442H69.57724c-12.623,0-18.95981-2.51623-18.95981-7.57129V7.61841c0-2.33148,1.90715-4.19385,5.68773-5.54A39.53692,39.53692,0,0,1,69.57724.04675a39.03293,39.03293,0,0,1,13.411,2.03162q5.54923,2.04262,5.54881,5.54v71.4591h11.57443c9.7574,0,18.10884-2.04,25.202-6.09417,6.31558-3.60877,7.69547-7.70856,9.48047-12.02686L156.83841,7.61841c.94363-2.28369,1.99786-4.21851,5.96493-5.67835a38.06909,38.06909,0,0,1,12.994-1.89331,39.55627,39.55627,0,0,1,13.27213,2.03162c3.78058,1.34619,6.615,3.25561,5.68771,5.54L172.71271,61.88Z" style="fill:#727270;fill-rule:evenodd"/><path d="M356.51056,85.84076c0,2.6073-1.95419,4.65613-5.82608,6.14007a35.34582,35.34582,0,0,1-10.67523,2.1623c-.49411.04986-1.317.077-2.54523.077H193.38608c-4.671,0-8.415-.95807-11.09848-2.83514-2.72241-1.9043-4.06974-4.115-4.06974-6.63654q0-3.893,3.79249-6.47027c2.91854-1.97632,6.71017-2.98694,11.37573-2.98694H318.59177V56.76349H206.93143c-10.05878,0-15.10242-3.12744-15.16284-9.34046,4.59243-13.57232,10.22827-26.58245,15.73715-39.80462.95016-2.28162,1.99869-4.21851,5.96518-5.67835A38.08226,38.08226,0,0,1,226.46469.04675,49.61428,49.61428,0,0,1,231.42587.286H340.1524c4.67032,0,8.40473.95154,11.09623,2.83435,2.71838,1.9018,4.0697,4.09827,4.07028,6.62116q.00379,3.91946-3.79166,6.48712c-2.92251,1.97741-6.707,2.98626-11.37744,2.98626l-99.4776-.00079-7.471,18.22791.00086.30127H340.15152q11.69211,0,14.36655,5.6029a4.76191,4.76191,0,0,1,1.99249,3.78687v38.7077Z" style="fill:#727270;fill-rule:evenodd"/></svg>